HIERARCHY
ROOT hips
{
  OFFSET 0 10.6860622 2.3727825e-15
  CHANNELS 6 Xposition Yposition Zposition Yrotation Xrotation Zrotation
  JOINT leftUpperLeg
  {
    OFFSET 0.6642549969 -0.9402397400000004 0
    CHANNELS 3 Yrotation Xrotation Zrotation
    JOINT leftLowerLeg
    {
      OFFSET 0 -3.997221335632195 0
      CHANNELS 3 Yrotation Xrotation Zrotation
      JOINT leftFoot
      {
        OFFSET -0.13777839790000004 -4.6145792000000005 -0.22186036399999998
        CHANNELS 3 Yrotation Xrotation Zrotation
        JOINT leftToes
        {
          OFFSET -0.03777410834999995 -0.9130806927000008 0.85230013
          CHANNELS 3 Yrotation Xrotation Zrotation
          End Site
          {
            OFFSET -0.03777410834999995 -0.9130806927000008 0.85230013
          }
        }
      }
    }
  }
  JOINT rightUpperLeg
  {
    OFFSET -0.6642778626 -0.9402397400000004 0
    CHANNELS 3 Yrotation Xrotation Zrotation
    JOINT rightLowerLeg
    {
      OFFSET 0 -3.997221452859387 0
      CHANNELS 3 Yrotation Xrotation Zrotation
      JOINT rightFoot
      {
        OFFSET 0.1377926176 -4.6145792000000005 -0.22185782299999995
        CHANNELS 3 Yrotation Xrotation Zrotation
        JOINT rightToes
        {
          OFFSET 0.037780746850000047 -0.9130806927000008 0.85230167
          CHANNELS 3 Yrotation Xrotation Zrotation
          End Site
          {
            OFFSET 0.037780746850000047 -0.9130806927000008 0.85230167
          }
        }
      }
    }
  }
  JOINT spine
  {
    OFFSET 0 0.13988381660000015 0
    CHANNELS 3 Yrotation Xrotation Zrotation
    JOINT chest
    {
      OFFSET 0 0.6191039003973773 0
      CHANNELS 3 Yrotation Xrotation Zrotation
      JOINT upperChest
      {
        OFFSET 0 0.9855186130586943 0
        CHANNELS 3 Yrotation Xrotation Zrotation
        JOINT leftShoulder
        {
          OFFSET 0.1807663869 1.5087829790000005 0
          CHANNELS 3 Yrotation Xrotation Zrotation
          JOINT leftUpperArm
          {
            OFFSET 0.5985063006419806 0 0
            CHANNELS 3 Yrotation Xrotation Zrotation
            JOINT leftLowerArm
            {
              OFFSET 2.2993332369501065 0 0
              CHANNELS 3 Yrotation Xrotation Zrotation
              JOINT leftHand
              {
                OFFSET 2.395047042602395 0 0
                CHANNELS 3 Yrotation Xrotation Zrotation
                JOINT leftIndexProximal
                {
                  OFFSET 0.5766295810000004 0.04556643899499946 0.17265095988184
                  CHANNELS 3 Yrotation Xrotation Zrotation
                  JOINT leftIndexIntermediate
                  {
                    OFFSET 0.2957229000000008 -0.019352197700001517 -0.007932640616999987
                    CHANNELS 3 Yrotation Xrotation Zrotation
                    JOINT leftIndexDistal
                    {
                      OFFSET 0.19008243099999922 -0.012484908149998475 -0.002786250786000012
                      CHANNELS 3 Yrotation Xrotation Zrotation
                      End Site
                      {
                        OFFSET 0.19008243099999922 -0.012484908149998475 -0.002786250786000012
                      }
                    }
                  }
                }
                JOINT leftMiddleProximal
                {
                  OFFSET 0.5834975091000001 0.0524350405149987 0.02204081888183999
                  CHANNELS 3 Yrotation Xrotation Zrotation
                  JOINT leftMiddleIntermediate
                  {
                    OFFSET 0.33880573540000003 -0.019871473270000717 -0.00000971183179999946
                    CHANNELS 3 Yrotation Xrotation Zrotation
                    JOINT leftMiddleDistal
                    {
                      OFFSET 0.20676022730000088 -0.012221336379999448 0.0001471936708000235
                      CHANNELS 3 Yrotation Xrotation Zrotation
                      End Site
                      {
                        OFFSET 0.20676022730000088 -0.012221336379999448 0.0001471936708000235
                      }
                    }
                  }
                }
                JOINT leftLittleProximal
                {
                  OFFSET 0.5344154683999995 -0.012880921405001189 -0.24414037221816004
                  CHANNELS 3 Yrotation Xrotation Zrotation
                  JOINT leftLittleIntermediate
                  {
                    OFFSET 0.21758961730000093 -0.011650919939999227 0.011893592810000034
                    CHANNELS 3 Yrotation Xrotation Zrotation
                    JOINT leftLittleDistal
                    {
                      OFFSET 0.1475273964999999 -0.008152365682999818 0.006001092492999946
                      CHANNELS 3 Yrotation Xrotation Zrotation
                      End Site
                      {
                        OFFSET 0.1475273964999999 -0.008152365682999818 0.006001092492999946
                      }
                    }
                  }
                }
                JOINT leftRingProximal
                {
                  OFFSET 0.5799399463000003 0.026911854694997794 -0.12150566991816003
                  CHANNELS 3 Yrotation Xrotation Zrotation
                  JOINT leftRingIntermediate
                  {
                    OFFSET 0.26167887460000006 -0.013480186499999602 0.010996293000000053
                    CHANNELS 3 Yrotation Xrotation Zrotation
                    JOINT leftRingDistal
                    {
                      OFFSET 0.17667108799999987 -0.008990287899999228 0.0055541023999999065
                      CHANNELS 3 Yrotation Xrotation Zrotation
                      End Site
                      {
                        OFFSET 0.17667108799999987 -0.008990287899999228 0.0055541023999999065
                      }
                    }
                  }
                }
                JOINT leftThumbProximal
                {
                  OFFSET 0.11018806699999972 -0.09448718900500053 0.17047963138184
                  CHANNELS 3 Yrotation Xrotation Zrotation
                  JOINT leftThumbIntermediate
                  {
                    OFFSET 0.31062601459999983 -0.08126270900000132 0.15443142000000007
                    CHANNELS 3 Yrotation Xrotation Zrotation
                    JOINT leftThumbDistal
                    {
                      OFFSET 0.21627175790000086 -0.08833193599999878 0.018771167799999988
                      CHANNELS 3 Yrotation Xrotation Zrotation
                      End Site
                      {
                        OFFSET 0.21627175790000086 -0.08833193599999878 0.018771167799999988
                      }
                    }
                  }
                }
              }
            }
          }
        }
        JOINT neck
        {
          OFFSET 0 1.5463305265074576 0
          CHANNELS 3 Yrotation Xrotation Zrotation
          JOINT head
          {
            OFFSET 0 0.8456443600000344 0
            CHANNELS 3 Yrotation Xrotation Zrotation
            JOINT leftEye
            {
              OFFSET 0.30408573140000006 0.5104519199999995 0.1276382305
              CHANNELS 3 Yrotation Xrotation Zrotation
              End Site
              {
                OFFSET 0.30408573140000006 0.5104519199999995 0.1276382305
              }
            }
            JOINT rightEye
            {
              OFFSET -0.30409491089999996 0.5104519199999995 0.1276379445
              CHANNELS 3 Yrotation Xrotation Zrotation
              End Site
              {
                OFFSET -0.30409491089999996 0.5104519199999995 0.1276379445
              }
            }
            JOINT jaw
            {
              OFFSET -3.155239131000001e-7 -0.11984121820000082 0.60178107
              CHANNELS 3 Yrotation Xrotation Zrotation
              End Site
              {
                OFFSET -3.155239131000001e-7 -0.11984121820000082 0.60178107
              }
            }
          }
        }
        JOINT rightShoulder
        {
          OFFSET -0.1807303465 1.5087829790000005 0
          CHANNELS 3 Yrotation Xrotation Zrotation
          JOINT rightUpperArm
          {
            OFFSET -0.5985063796536958 0 0
            CHANNELS 3 Yrotation Xrotation Zrotation
            JOINT rightLowerArm
            {
              OFFSET -2.2993322059002854 0 0
              CHANNELS 3 Yrotation Xrotation Zrotation
              JOINT rightHand
              {
                OFFSET -2.395045314457259 0 0
                CHANNELS 3 Yrotation Xrotation Zrotation
                JOINT rightIndexProximal
                {
                  OFFSET -0.5764487688300002 0.0441371204405987 0.17361932004999997
                  CHANNELS 3 Yrotation Xrotation Zrotation
                  JOINT rightIndexIntermediate
                  {
                    OFFSET -0.29573011380000047 -0.01934826376999843 -0.007698921482999974
                    CHANNELS 3 Yrotation Xrotation Zrotation
                    JOINT rightIndexDistal
                    {
                      OFFSET -0.19008373999999884 -0.012503266380000655 -0.0026365778999999897
                      CHANNELS 3 Yrotation Xrotation Zrotation
                      End Site
                      {
                        OFFSET -0.19008373999999884 -0.012503266380000655 -0.0026365778999999897
                      }
                    }
                  }
                }
                JOINT rightMiddleProximal
                {
                  OFFSET -0.5834852037300005 0.05211639405060153 0.02307162440000001
                  CHANNELS 3 Yrotation Xrotation Zrotation
                  JOINT rightMiddleIntermediate
                  {
                    OFFSET -0.33880114510000003 -0.019952774050000954 0.0002455003561999819
                    CHANNELS 3 Yrotation Xrotation Zrotation
                    JOINT rightMiddleDistal
                    {
                      OFFSET -0.20675694929999955 -0.012273788999999091 0.00030209124000002766
                      CHANNELS 3 Yrotation Xrotation Zrotation
                      End Site
                      {
                        OFFSET -0.20675694929999955 -0.012273788999999091 0.00030209124000002766
                      }
                    }
                  }
                }
                JOINT rightLittleProximal
                {
                  OFFSET -0.5346811737299992 -0.011214256288399227 -0.24363941305000003
                  CHANNELS 3 Yrotation Xrotation Zrotation
                  JOINT rightLittleIntermediate
                  {
                    OFFSET -0.21757715980000092 -0.011771559690000988 0.01201554387
                    CHANNELS 3 Yrotation Xrotation Zrotation
                    JOINT rightLittleDistal
                    {
                      OFFSET -0.1475201849000004 -0.00822055339600003 0.006082065407000015
                      CHANNELS 3 Yrotation Xrotation Zrotation
                      End Site
                      {
                        OFFSET -0.1475201849000004 -0.00822055339600003 0.006082065407000015
                      }
                    }
                  }
                }
                JOINT rightRingProximal
                {
                  OFFSET -0.5800810755299999 0.027657985680600072 -0.12066365025000003
                  CHANNELS 3 Yrotation Xrotation Zrotation
                  JOINT rightRingIntermediate
                  {
                    OFFSET -0.26166445029999974 -0.013623118409999302 0.011164098990000045
                    CHANNELS 3 Yrotation Xrotation Zrotation
                    JOINT rightRingDistal
                    {
                      OFFSET -0.17666387530000027 -0.009072900100000503 0.005668185599999959
                      CHANNELS 3 Yrotation Xrotation Zrotation
                      End Site
                      {
                        OFFSET -0.17666387530000027 -0.009072900100000503 0.005668185599999959
                      }
                    }
                  }
                }
                JOINT rightThumbProximal
                {
                  OFFSET -0.10997596379000074 -0.09577489355940072 0.16989765924999997
                  CHANNELS 3 Yrotation Xrotation Zrotation
                  JOINT rightThumbIntermediate
                  {
                    OFFSET -0.31036620999999986 -0.08229339117999834 0.15440884469999996
                    CHANNELS 3 Yrotation Xrotation Zrotation
                    JOINT rightThumbDistal
                    {
                      OFFSET -0.21631306399999906 -0.08825326400000111 0.018656797720000014
                      CHANNELS 3 Yrotation Xrotation Zrotation
                      End Site
                      {
                        OFFSET -0.21631306399999906 -0.08825326400000111 0.018656797720000014
                      }
                    }
                  }
                }
              }
            }
          }
        }
      }
    }
  }
}
MOTION
Frames: 4
Frame Time: 0.03333333333333333
0.06271441280841827 -0.09097228758544951 -0.08138386905193329 -4.185778458943427 -1.999658429455918 -1.3493098699560382 14.487154382052616 -11.939674315716102 4.383293755797894 1.9125982560644947 11.54363927861721 4.312272600427419 0.6371824798571462 2.540264672848073 -6.481226177539332 -0.000007402794230632278 -4.977166941458402 -7.122949932506096e-7 -10.29759275273443 -3.6139074023658297 1.8182748938986513 -10.202615011703267 10.167343726803995 -5.354917174902686 -2.686961072499936 -4.3429078460654855 4.026069470426578 9.754616125318042e-8 -7.2479951468034205 -8.605789431987012e-7 1.6678412903122346 4.03683380428623 3.2747091686957206 1.079895310952888 4.667666991824999 5.707833014274938 0 0 0 -18.26358899951155 1.1587751228797114 -11.598759866821263 -5.3994521810625855 -0.6192780421692675 -72.15856118318868 -0.3134930239784767 0.000009874200450779467 0.004032497989087054 -12.911468285291672 -42.69051976614485 6.074216781692338 -1.475852123212919 2.0474421367744235 5.369071695424618 1.5098213052393503 0.22741596104893563 -17.13258871933927 0.6946193313673431 0.0472780845471574 -7.7900065008367125 2.4197841751926257 0.0628122597982731 0.9574802662031429 1.4484396496533334 0.20894556813418233 -16.416178084981613 1.5384215206828717 0.23630629878944834 -17.467401840523827 8.691431354519644 1.1253342765742773 -12.300195772858617 1.3457224426131436 0.1798355475856268 -15.222842476394813 1.2464626786631934 0.15387342133271803 -14.076047538836152 3.7130652261612442 0.24036528054347148 -12.437822793191598 1.7141249661369902 0.2951201453051795 -19.538240891068746 1.444766941367811 0.20782958521584707 -16.373304307234925 -6.009397176892618 -4.612589680211333 6.0022465729428305 17.673229995704926 7.563869071673405 21.313830607043005 3.100567486593233 -14.064146901749167 8.18563636458506 0.3263332444928442 16.786931858570895 0.5487798447494421 5.847379850410796 -8.031438560384318 -3.6073260685822057 0 0 0 0 0 0 0 0 0 14.626802264101721 0.8884102366273641 16.51734515645003 18.58614077283273 7.682606947936607 59.134173298670774 7.2309296703334045 0.00588079288570648 -0.09316311330847166 3.029468719006351 -22.902834016249447 0.40151875013234 -1.5547662400266538 1.1666550484054645 -7.73662223354152 -0.7888410156962892 0.08011601730751276 11.59922467955515 -0.1474940328717496 0.0027700204465102725 2.1545874270754797 -2.342989097855071 0.005150346172255824 9.46576017426124 -0.9816802199138438 0.12478632076645353 14.490127179342947 -1.047977244590926 0.14257054099442065 15.492314201429151 -3.3681663840481955 -0.4023249004392763 35.27859684727867 -1.1310174630746184 0.16655487773000402 16.75450948648995 -1.0470139270225403 0.1422941976236441 15.477638135005163 -1.0615689723384676 -1.0558074277920022 27.156549602058664 -1.4027035989479983 0.25932774692027044 20.947150374279968 -1.1979403780424955 0.18736048033823371 17.77786802924064 4.841963170250674 -3.266889060525353 1.0626507705955635 -19.947727762309096 7.592748347228942 -20.410551276922195 -1.5679859921283648 -16.177283477973873 -11.390310957541342
0.06261822581291199 -0.09106097929687529 -0.07975074648857117 -4.183293967953865 -2.053185734080796 -1.360129966233392 14.4856444465151 -11.8759737841076 4.410101898125552 1.9007306402662378 11.541378005188731 4.312392328852364 0.6368873654921188 2.529203244527025 -6.483287367692846 -0.000006692041011678613 -4.979698110924206 9.849712735139999e-7 -10.307476126969961 -3.5454707007740773 1.816609811959565 -10.202558454577877 10.169514823582748 -5.3548039273397166 -2.680262986854476 -4.358389538468353 4.030682502937492 -0.0000018199710995099986 -7.254390688253421 0.0000026016262995392957 1.6672073884685192 4.025403378541092 3.264081656737427 1.0803858877605124 4.625700550338311 5.6678092523594445 0 0 0 -18.23434056225062 1.1589340640086585 -11.591915356673244 -5.601083229199041 -0.5881313439139665 -72.28720675892241 -0.41088930945692625 0.00003442267127227811 0.005310124802055818 -12.976536655395263 -42.51532538888334 6.085954287480628 -1.4893778744744994 2.007455801832674 5.2646937371090115 1.5111473455971727 0.22781979917033587 -17.14804085492459 0.6959946003658977 0.04746102562370896 -7.805460149140688 2.3973208029408557 0.0633347895967146 0.8911039454236147 1.44914900479155 0.2091443252938852 -16.424386971283425 1.538971509168097 0.23648228438015578 -17.4738576282363 8.622166344726576 1.1344119756129882 -12.540850724947829 1.3513761016219654 0.1813627828028993 -15.288236446800175 1.252193521704128 0.15530608540630308 -14.142095886034502 3.699195863860324 0.23690912148465684 -12.347579558926565 1.716345212474331 0.2959103766864954 -19.56455709206688 1.4470745629274013 0.2085099806016194 -16.40018257928825 -5.911046833165805 -4.5848680504590185 5.913845342071337 17.711750071714675 7.577734844216433 21.315958813656543 3.0933163118341485 -14.066344664328174 8.18668559302991 0.2874942170468763 16.68465297781451 0.6650768904107365 5.553648858249265 -8.004320582069806 -3.4236412017789593 0 0 0 0 0 0 0 0 0 14.610344066318875 0.8891198078936059 16.515535661092304 18.699773061268143 7.728790529304469 59.19974377059265 7.220927841579685 0.0058747781170380535 -0.0930381156767019 2.9212618744792236 -22.796930078290355 0.7331791559192569 -0.7583932959610442 1.0978937362160472 -6.066814926678003 -0.8150885716451545 0.08558694452368178 11.990798077412325 -0.17627495656929532 0.00397343795682174 2.575189569376773 -2.2627270110043893 -0.01166759735914105 9.75725846392438 -1.0017760211353561 0.13005131574026246 14.793389372907159 -1.0680496033011164 0.14816992675641902 15.796734375063727 -3.535630348377691 -0.16657264696910185 33.04893870722599 -1.1269083090070944 0.16532134306061363 16.69193729316963 -1.0490540511729716 0.1428585704316188 15.508675739080047 -1.1254894609914385 -0.9411411103076183 25.85188310761136 -1.404525021461277 0.2600141079395126 20.975652866924065 -1.2006421423898634 0.18823188108691458 17.819225190309268 4.184729060165437 -2.8661118243569894 -0.559382536258349 -20.2298724238527 7.686482022656987 -20.445208285847155 -2.069560278578741 -16.087039493790893 -11.431941470958728
0.06206481158733368 -0.09122501127929716 -0.07523881644010544 -4.169112536672178 -2.2106939571621185 -1.4174068521132397 14.47696412215904 -11.685418017947228 4.516808333168658 1.8614547044539569 11.510468789403905 4.311503886772766 0.635643359074003 2.5077733171621115 -6.500562007764162 5.2893380155053654e-8 -4.986883308701117 -8.569356880005953e-7 -10.339948346454669 -3.3172889572738398 1.8411429502880137 -10.202003531267572 10.130076541674372 -5.348045811665885 -2.6599935955641056 -4.3811181758665025 4.036262077456162 0.000010702333264067742 -7.267894693675774 -1.3914110585955823e-7 1.6623034167466495 3.973181933203191 3.2229549206069716 1.0617234815092675 4.452368864329777 5.502433088851362 0 0 0 -18.150661842438247 1.153558250861818 -11.611486607224522 -6.29202334276006 -0.5353004915826408 -72.5612038916692 -0.7288525294130832 0.00004943338468653683 0.009414494377659368 -13.233984971415307 -41.87276973546249 6.203342092740397 -1.4209048780761857 1.9723891671597908 4.3265913040241415 1.5185199129544709 0.23011142597651607 -17.23438300110529 0.7036503062667134 0.04853268201350448 -7.891803701486428 2.4715763815626572 0.06356780991407118 0.442363806799447 1.4492234732120346 0.20914433863418733 -16.4252325577095 1.5396319157334737 0.23670890985455648 -17.48158203645568 8.254759107194113 1.2460660278696059 -14.613339517175886 1.4022647457920556 0.19553631578403272 -15.878845083178874 1.3040263309744446 0.16866324075011171 -14.740273381763648 3.7589361599858444 0.2512473394742514 -12.576406551478916 1.7286845857421353 0.300308411032103 -19.71094368825803 1.4593956645186392 0.21215811327342243 -16.543771439258077 -4.788072693360104 -4.128232110963376 5.468072860575534 18.632903928455537 7.910582045995104 21.354949548690325 3.1818003844928424 -14.031878220183287 8.174062142332392 0.13630881112492238 16.20236656228571 1.1350958255874362 4.396765992669177 -7.806445145024786 -2.6529188231605954 0 0 0 0 0 0 0 0 0 14.571319156392443 0.9028215619909528 16.45223577004171 19.20876677198536 7.892383544641481 59.51162882573206 7.160077771023978 0.005773264096468954 -0.09224999024682137 2.3644125829001954 -22.513383337554927 2.475986249134013 0.9920214681711981 0.7208832140908011 -1.5310724451125646 -0.9470584645422959 0.11602364895184038 13.96864058673984 -0.3146849381962265 0.012623860550025987 4.600660647998635 -2.2885635274141523 -0.015132242593916179 10.40602219370275 -1.0638453442016818 0.1470056691250493 15.732942209433464 -1.1298212283514266 0.16619542416925945 16.736354651968757 -4.048732925471093 0.3381852801198249 27.77306043466638 -1.1248743057921868 0.1647058630905847 16.660797908323513 -1.0598655033806847 0.1458772568234603 15.672505546714046 -1.3768639569951142 -0.6692105234026153 22.995853691875546 -1.4189148219207792 0.26556700342194267 21.200708921869392 -1.2173843824763364 0.19365433434919235 18.076213869475282 1.44063989631084 -2.0005148592954116 -3.3940007094191498 -22.145977784877754 8.316476013034658 -20.692219616858267 -3.282971791641118 -15.834955382847541 -11.541135547991296
0.06043794006109238 -0.09125552885742216 -0.07283839583396912 -4.14967765170504 -2.2978018920809715 -1.4908104210131474 14.470920750001653 -11.572848379839714 4.619276800018197 1.8336488067225116 11.452666778787313 4.319818644147548 0.6343436989987697 2.5033572199668592 -6.527096664637501 -0.000004056416715621728 -4.9912065491304105 -0.0000012061498399243184 -10.347644860236288 -3.147778627088258 1.910778445467742 -10.200797784127023 10.042036578974242 -5.339163794807826 -2.6695658732331555 -4.364624346848977 4.026863572199359 0.000015590259952898594 -7.271142084491864 -0.000002780741799924253 1.653514192198744 3.9200686515519 3.1901803151290657 1.0208963097986508 4.288250526355037 5.355707300596213 0 0 0 -18.101366170458434 1.1482658142635735 -11.637570601463299 -6.889966057225567 -0.4920179235143258 -72.62921388261915 -0.9541748693837458 0.00008806062996421338 0.012293649961330335 -13.381879243330253 -41.27550028098148 6.329048344399785 -1.275898464489139 2.027673956109196 3.073429432969628 1.5252442383372176 0.2322036953658283 -17.31309871003692 0.7106258840006142 0.0494949719763288 -7.970556134288129 2.64818836931395 0.06541647782333945 -0.16003893811144787 1.4489533791250935 0.2090634430424723 -16.42207656951184 1.5396402370922366 0.23670063885177606 -17.48162034266721 7.977587235875395 1.3549706213853114 -16.743557021008655 1.4511740703801308 0.20972614924038901 -16.44793937841199 1.3539296113292223 0.18204837982875954 -15.317878215399086 3.8718445142842572 0.281101965264906 -13.26568912050662 1.742624777190924 0.30533800847114456 -19.87651085506411 1.473232656650992 0.216290406605866 -16.70516981486369 -3.150729967079726 -3.3798783931955656 5.086288904417236 20.153856371467022 8.466690417074284 21.432916108781573 3.3819395199638254 -13.951690412867649 8.145823808861389 0.0060693070547262985 15.757350260351444 1.5217442585462668 3.41860540529111 -7.667019993410258 -1.9721672604568647 0 0 0 0 0 0 0 0 0 14.584020365537922 0.9181292015958311 16.372311595654757 19.771680252303018 8.077811985307292 59.80207921169806 7.11385897887664 0.005701512925527698 -0.0916584259095561 1.7723916363615704 -22.30877618318157 4.015292508351458 1.5442073339534537 0.43410573721968243 1.4618700090229932 -1.07359610527716 0.14976358069486123 15.880888413207899 -0.4454814290952142 0.025349699315264786 6.520075264478511 -2.4079173919809937 -0.00033191531785030305 11.054302830630764 -1.1017995536637517 0.15789024110208225 16.30952706483406 -1.1675276548474578 0.17774125731544388 17.312085501713693 -4.354792125271447 0.5223055031999486 25.89642756178117 -1.1270465546290367 0.1653640052401384 16.69402685966364 -1.0660073877477145 0.14759909713120545 15.7655763382546 -1.6084200256630197 -0.5345392658410273 22.159474689468453 -1.4290072656736725 0.26947959720808606 21.358901832114793 -1.2287531150480762 0.1973867342980242 18.25091784528266 0.05897498716254044 -1.7204015227336744 -4.074167399971718 -24.10844420274939 8.956749589013953 -20.97932106740568 -3.6973646104977598 -15.608520810451676 -11.601553609787237
